<svg width="56" height="55" viewBox="0 0 56 55" fill="none" xmlns="http://www.w3.org/2000/svg">
<path d="M30.9055 14.9816C31.4673 14.9816 31.8418 14.6071 31.8418 14.0453C31.8418 13.4835 31.4673 13.109 30.9055 13.109C27.2537 13.109 24.3511 11.4235 24.3511 9.36356C24.3511 8.80175 23.9766 8.42725 23.4147 8.42725C22.8529 8.42725 22.4784 8.80175 22.4784 9.36356C22.4783 12.547 26.1301 14.9816 30.9055 14.9816Z" fill="#E8C300"/>
<path d="M30.9055 5.61811C34.5573 5.61811 37.4599 7.30355 37.4599 9.3635C37.4599 9.92531 37.8345 10.2998 38.3963 10.2998C38.9581 10.2998 39.3326 9.92531 39.3326 9.3635C39.3326 6.17992 35.6808 3.74536 30.9054 3.74536C30.3436 3.74536 29.9691 4.11987 29.9691 4.68168C29.9691 5.24349 30.3437 5.61811 30.9055 5.61811Z" fill="#E8C300"/>
<path d="M55.4381 30.6189L45.8873 21.068V9.36353C45.8873 4.1199 39.3328 0 30.9056 0C22.4784 0 15.9239 4.1199 15.9239 9.36353V32.7724L12.1838 27.7858C12.2027 24.8101 11.171 22.0269 9.08848 19.9443C7.02843 17.7907 4.12576 16.6671 0.942181 16.8544L0.00586082 16.948V17.7907C-0.087848 20.8807 0.942181 23.7834 3.09573 25.937C5.15568 27.9034 7.87115 29.027 10.7738 29.027L13.0585 32.0733L8.15194 33.7088C7.68373 33.8961 7.40282 34.458 7.59013 34.9261C7.68373 35.3006 8.05834 35.5815 8.43285 35.5815C8.52645 35.5815 8.62016 35.5815 8.80736 35.4879L14.257 33.6713L15.9236 35.8935V47.7541C15.9236 50.3758 20.6991 54.3085 30.9053 54.3085C41.2053 54.3085 45.887 50.4694 45.887 47.7541V34.3642L48.7896 37.2669C49.0705 37.6414 49.6324 37.8287 50.1006 37.8287C50.5688 37.8287 51.0369 37.5478 51.5051 37.2669L55.4378 33.3342C56.1872 32.5852 56.1872 31.3679 55.4381 30.6189ZM1.8785 18.7271C4.12576 18.8207 6.1857 19.6634 7.77755 21.2552C9.00948 22.4871 9.79075 24.0003 10.1253 25.6629L6.27941 21.817C5.90491 21.4425 5.34309 21.4425 4.96848 21.817C4.59386 22.1915 4.59397 22.7534 4.96848 23.128L8.81438 26.9739C7.15176 26.6393 5.6386 25.8581 4.40666 24.6261C2.81482 23.0344 1.9721 20.9743 1.8785 18.7271ZM30.9055 1.87264C38.0218 1.87264 44.0146 5.33712 44.0146 9.36353C44.0146 13.3898 38.0219 16.8544 30.9055 16.8544C23.7892 16.8544 17.7965 13.3899 17.7965 9.36353C17.7966 5.33723 23.7892 1.87264 30.9055 1.87264ZM30.9055 52.4359C21.7292 52.4359 17.7965 49.065 17.7965 47.7541V13.9669C18.2542 14.4845 18.788 14.9705 19.3894 15.4195C19.4313 15.4511 19.4736 15.4825 19.5162 15.5136C19.5281 15.5223 19.5403 15.5309 19.5523 15.5395C21.7974 17.1707 24.9382 18.2773 28.5415 18.6161C28.57 18.6189 28.5985 18.6215 28.6271 18.6241C28.7279 18.6332 28.8289 18.642 28.9304 18.6499C28.9904 18.6546 29.0509 18.6587 29.1112 18.663C29.2214 18.6708 29.3317 18.6781 29.4426 18.6845C29.5554 18.691 29.6684 18.697 29.782 18.702C29.8399 18.7046 29.8982 18.7065 29.9564 18.7087C30.0631 18.7127 30.1703 18.716 30.2778 18.7186C30.329 18.7198 30.3801 18.7212 30.4315 18.7221C30.589 18.725 30.7469 18.7269 30.9056 18.7269C31.0644 18.7269 31.2223 18.725 31.3798 18.7221C31.4311 18.7211 31.4823 18.7198 31.5335 18.7186C31.6409 18.716 31.7481 18.7127 31.8549 18.7087C31.9131 18.7065 31.9713 18.7046 32.0293 18.702C32.1428 18.697 32.256 18.6911 32.3688 18.6845C32.4796 18.6781 32.5898 18.6708 32.6998 18.663C32.7602 18.6587 32.8207 18.6545 32.8809 18.6498C32.9824 18.6419 33.0833 18.6331 33.1841 18.624C33.2127 18.6214 33.2412 18.6188 33.2697 18.616C36.8729 18.2772 40.0137 17.1705 42.2588 15.5394C42.2708 15.5308 42.283 15.5222 42.295 15.5134C42.3377 15.4823 42.3798 15.4508 42.4218 15.4192C43.0233 14.9701 43.557 14.4842 44.0147 13.9667V47.754C44.0146 49.1587 40.2692 52.4359 30.9055 52.4359ZM50.0072 35.8624L45.8872 31.7424V23.7834L53.9399 31.9297L50.0072 35.8624Z" fill="#E8C300"/>
<path d="M21.542 29.9634C20.9802 29.9634 20.6057 30.3379 20.6057 30.8997V47.7541C20.6057 48.3159 20.9802 48.6904 21.542 48.6904C22.1038 48.6904 22.4783 48.3159 22.4783 47.7541V30.8997C22.4783 30.338 22.1038 29.9634 21.542 29.9634Z" fill="#E8C300"/>
<path d="M26.2238 24.3452C25.662 24.3452 25.2875 24.7197 25.2875 25.2815V30.8997C25.2875 31.4615 25.662 31.836 26.2238 31.836C26.7856 31.836 27.1601 31.4615 27.1601 30.8997V25.2815C27.1601 24.7198 26.7856 24.3452 26.2238 24.3452Z" fill="#E8C300"/>
<path d="M30.9055 20.5999C30.3437 20.5999 29.9692 20.9744 29.9692 21.5362V27.1543C29.9692 27.7161 30.3437 28.0906 30.9055 28.0906C31.4673 28.0906 31.8418 27.7161 31.8418 27.1543V21.5362C31.842 20.9744 31.4673 20.5999 30.9055 20.5999Z" fill="#E8C300"/>
<path d="M21.542 19.6635C20.9802 19.6635 20.6057 20.038 20.6057 20.5998V26.2179C20.6057 26.7797 20.9802 27.1542 21.542 27.1542C22.1038 27.1542 22.4783 26.7797 22.4783 26.2179V20.5998C22.4783 20.038 22.1038 19.6635 21.542 19.6635Z" fill="#E8C300"/>
<path d="M40.2691 29.9634C39.7073 29.9634 39.3328 30.3379 39.3328 30.8997V41.1997C39.3328 41.7615 39.7073 42.136 40.2691 42.136C40.831 42.136 41.2055 41.7615 41.2055 41.1997V30.8997C41.2055 30.338 40.831 29.9634 40.2691 29.9634Z" fill="#E8C300"/>
<path d="M40.2691 19.6635C39.7073 19.6635 39.3328 20.038 39.3328 20.5998V26.2179C39.3328 26.7797 39.7073 27.1542 40.2691 27.1542C40.831 27.1542 41.2055 26.7797 41.2055 26.2179V20.5998C41.2055 20.038 40.831 19.6635 40.2691 19.6635Z" fill="#E8C300"/>
<path d="M35.5874 19.6635C35.0255 19.6635 34.651 20.038 34.651 20.5998V23.4088C34.651 23.9707 35.0255 24.3452 35.5874 24.3452C36.1492 24.3452 36.5237 23.9707 36.5237 23.4088V20.5998C36.5237 20.038 36.1492 19.6635 35.5874 19.6635Z" fill="#E8C300"/>
<path d="M30.9055 44.0087C30.3437 44.0087 29.9692 44.3832 29.9692 44.945V47.7541C29.9692 48.3159 30.3437 48.6904 30.9055 48.6904C31.4673 48.6904 31.8418 48.3159 31.8418 47.7541V44.945C31.842 44.3833 31.4673 44.0087 30.9055 44.0087Z" fill="#E8C300"/>
<path d="M40.2691 44.9451C39.7073 44.9451 39.3328 45.3196 39.3328 45.8814V47.7541C39.3328 48.316 39.7073 48.6905 40.2691 48.6905C40.831 48.6905 41.2055 48.316 41.2055 47.7541V45.8814C41.2055 45.3196 40.831 44.9451 40.2691 44.9451Z" fill="#E8C300"/>
<path d="M35.5874 27.1543C35.0255 27.1543 34.651 27.5288 34.651 28.0906V30.8997C34.651 31.4615 35.0255 31.836 35.5874 31.836C36.1492 31.836 36.5237 31.4615 36.5237 30.8997V28.0906C36.5237 27.5289 36.1492 27.1543 35.5874 27.1543Z" fill="#E8C300"/>
<path d="M30.9055 30.8998C30.3437 30.8998 29.9692 31.2743 29.9692 31.8361V40.2633C29.9692 40.8251 30.3437 41.1996 30.9055 41.1996C31.4673 41.1996 31.8418 40.8251 31.8418 40.2633V31.8361C31.842 31.2743 31.4673 30.8998 30.9055 30.8998Z" fill="#E8C300"/>
<path d="M26.2238 34.6451C25.662 34.6451 25.2875 35.0196 25.2875 35.5815V44.0087C25.2875 44.5705 25.662 44.945 26.2238 44.945C26.7856 44.945 27.1601 44.5705 27.1601 44.0087V35.5815C27.1601 35.0196 26.7856 34.6451 26.2238 34.6451Z" fill="#E8C300"/>
<path d="M35.5874 34.6451C35.0255 34.6451 34.651 35.0196 34.651 35.5815V44.0087C34.651 44.5705 35.0255 44.945 35.5874 44.945C36.1492 44.945 36.5237 44.5705 36.5237 44.0087V35.5815C36.5237 35.0196 36.1492 34.6451 35.5874 34.6451Z" fill="#E8C300"/>
</svg>
