<svg width="78" height="78" viewBox="0 0 78 78" fill="none" xmlns="http://www.w3.org/2000/svg">
<path d="M77.9953 59.2304C77.9953 59.2089 77.9953 59.1898 77.9928 59.1685C77.9904 59.1542 77.9904 59.1399 77.9881 59.1257C77.9857 59.1019 77.981 59.0805 77.9787 59.0567C77.9762 59.0448 77.9762 59.0329 77.9715 59.021C77.9668 58.9877 77.9596 58.952 77.9525 58.9187L66.5742 13.4191C66.3956 12.6955 65.7457 12.1873 64.9983 12.1873H12.9994C12.2543 12.1873 11.6045 12.6955 11.4236 13.4191L0.0476839 58.9185C0.0382385 58.9519 0.0333635 58.9875 0.0262033 59.0209C0.0237658 59.0328 0.0237658 59.0447 0.0190431 59.059C0.0166056 59.0805 0.0143204 59.1018 0.00959771 59.1257C0.00959771 59.14 0.0071602 59.1543 0.00487503 59.1685C0.00487503 59.19 0.00243751 59.209 0.00243751 59.2304C0 59.2447 0 59.2613 0 59.2756C0 59.2875 0 59.2994 0 59.3113V64.1863C0 64.7123 0.25472 65.2075 0.683113 65.5121C1.11394 65.8168 1.66391 65.8954 2.16131 65.7216L10.9306 62.6581L19.7807 65.7216C20.1235 65.843 20.4996 65.8406 20.8471 65.7216L29.6545 62.6581L38.4666 65.7216C38.8093 65.843 39.1878 65.843 39.533 65.7216L48.3428 62.6581L57.1524 65.7216C57.4999 65.843 57.876 65.843 58.2188 65.7216L67.0309 62.6581L75.8407 65.7216C76.0145 65.7812 76.1953 65.8121 76.3739 65.8121C76.7072 65.8121 77.0379 65.7097 77.3141 65.5121C77.745 65.2075 77.9997 64.7123 77.9997 64.1863V59.3113C78 59.2994 78 59.2875 78 59.2756C77.9976 59.2613 77.9976 59.2447 77.9953 59.2304ZM74.0675 56.7906L67.5642 54.5269C67.219 54.4079 66.843 54.4079 66.4978 54.5269L59.0498 57.1166L57.4336 44.172L64.0748 41.8753L70.9469 44.303L74.0675 56.7906ZM67.2931 29.6877L70.0019 40.5232L64.6199 38.6224C64.2747 38.4998 63.8938 38.4987 63.5463 38.6189L57.0194 40.8766L55.6031 29.5378L61.1708 27.587L67.2931 29.6877ZM63.732 15.4375L66.3552 25.9303L61.6946 24.3306C61.3471 24.2117 60.9734 24.2129 60.6281 24.3342L55.1913 26.2385L53.8392 15.4375H63.732ZM40.6235 15.4377H50.5639L51.8922 26.0494L46.9173 24.332C46.5745 24.213 46.1984 24.213 45.8556 24.3332L40.6235 26.1518V15.4377ZM40.6233 29.5926L46.3888 27.5872L52.3397 29.6438L53.7178 40.6577L47.8955 38.6213C47.5503 38.4999 47.1718 38.4999 46.8266 38.6201L40.6233 40.7767V29.5926ZM40.6233 44.2173L47.3576 41.8753L54.1677 44.2578L55.7482 56.9167L48.8786 54.5267C48.5311 54.4077 48.1549 54.4077 47.8097 54.5267L40.6233 57.0261V44.2173ZM27.4338 15.4377H37.3743V26.1518L32.1446 24.3332C31.8018 24.213 31.4257 24.213 31.0806 24.332L26.1079 26.0494L27.4338 15.4377ZM37.3744 44.2174V57.0262L30.188 54.5267C29.8452 54.4077 29.4691 54.4077 29.1216 54.5267L22.2495 56.9167L23.8325 44.2627L30.6403 41.8754L37.3744 44.2174ZM25.658 29.6437L31.6089 27.587L37.3741 29.5925V40.7767L31.1732 38.6201C30.8257 38.4999 30.4496 38.4999 30.1021 38.6213L24.2798 40.6614L25.658 29.6437ZM14.2681 15.4377H24.1585L22.8089 26.2386L17.372 24.3343C17.0268 24.2129 16.6508 24.2117 16.3056 24.3308L11.6449 25.9304L14.2681 15.4377ZM10.7071 29.6878L16.8294 27.5872L22.3947 29.5379L20.9808 40.8733L14.449 38.6191C14.1015 38.4989 13.7253 38.5001 13.3778 38.6226L7.99825 40.5234L10.7071 29.6878ZM7.05082 44.3029L13.9254 41.8751L20.5665 44.1671L18.9479 57.1189L11.4616 54.5267C11.2878 54.4672 11.1094 54.4362 10.9309 54.4362C10.7499 54.4362 10.5666 54.4672 10.393 54.5267L3.93262 56.7857L7.05082 44.3029ZM74.7481 61.9014L67.5644 59.4018C67.2192 59.2828 66.8432 59.2828 66.498 59.4018L57.6859 62.4653L48.8786 59.4018C48.5311 59.2828 48.1549 59.2828 47.8097 59.4018L39.0001 62.4653L30.188 59.4018C29.8452 59.2828 29.4691 59.2828 29.1216 59.4018L20.3095 62.4677L11.4616 59.4018C11.2878 59.3422 11.1094 59.3113 10.9309 59.3113C10.7499 59.3113 10.5666 59.3422 10.393 59.4018L3.24951 61.8988V60.4659L10.9309 57.7832L19.781 60.8467V60.8492C19.8001 60.8539 19.8144 60.8586 19.831 60.8635C19.8619 60.8729 19.8953 60.8825 19.9287 60.8897C19.9477 60.8944 19.9667 60.8991 19.9858 60.9016C20.0167 60.9087 20.0501 60.9159 20.081 60.9206C20.0905 60.9206 20.1 60.9231 20.1096 60.9254C20.1263 60.9278 20.143 60.9278 20.1572 60.9301C20.1691 60.9301 20.1787 60.9301 20.1905 60.9325C20.2311 60.9349 20.2714 60.9372 20.3142 60.9372C20.3404 60.9372 20.3667 60.9348 20.3951 60.9325C20.4142 60.9325 20.4332 60.9325 20.4523 60.9301C20.4809 60.9276 20.5094 60.9229 20.5403 60.9206C20.5569 60.9182 20.5737 60.9159 20.5903 60.9135C20.6189 60.9087 20.6474 60.9016 20.6759 60.8944C20.695 60.8897 20.7116 60.8873 20.7283 60.8825C20.757 60.8754 20.7807 60.8659 20.8092 60.8588C20.8211 60.8541 20.833 60.8516 20.8473 60.8469L29.6546 57.7834L38.4667 60.8469C38.4714 60.8493 38.481 60.8516 38.4882 60.8541C38.5097 60.8612 38.5334 60.8684 38.5572 60.8755C38.5834 60.8827 38.6096 60.8874 38.6334 60.8946C38.6571 60.8993 38.6786 60.904 38.7001 60.9089C38.731 60.9136 38.762 60.9183 38.7906 60.9232C38.8096 60.9257 38.8287 60.9279 38.8477 60.9304C38.9001 60.9351 38.9477 60.9375 39.0001 60.9375C39.05 60.9375 39.1 60.9351 39.15 60.9304C39.1715 60.9279 39.1881 60.9257 39.2071 60.9232C39.238 60.9185 39.2667 60.9138 39.2976 60.9089C39.3191 60.9042 39.3429 60.8995 39.3666 60.8946C39.3904 60.8874 39.4142 60.8827 39.4404 60.8755C39.4641 60.8684 39.4879 60.8612 39.5118 60.8541C39.519 60.8516 39.5261 60.8493 39.5333 60.8469L48.3431 57.7834L57.1527 60.8469C57.167 60.8516 57.1765 60.8541 57.1908 60.8588C57.217 60.8659 57.2432 60.8754 57.2717 60.8825C57.2883 60.8873 57.305 60.8897 57.3241 60.8944C57.3527 60.9016 57.3812 60.9087 57.4097 60.9135C57.4263 60.9159 57.4431 60.9182 57.4621 60.9206C57.4908 60.9254 57.5192 60.9278 57.5477 60.9301C57.5715 60.9325 57.6001 60.9325 57.6239 60.9348C57.6429 60.9348 57.6644 60.9372 57.6858 60.9372C57.7263 60.9372 57.7667 60.9348 57.8095 60.9325C57.8189 60.9301 57.8332 60.9301 57.8451 60.9278C57.8594 60.9278 57.8738 60.9254 57.8879 60.9254C57.8974 60.9229 57.9045 60.9206 57.9141 60.9206C57.9475 60.9159 57.9831 60.9087 58.0165 60.9016C58.0331 60.8991 58.0521 60.8944 58.0712 60.8897C58.1021 60.8825 58.1355 60.8731 58.1664 60.8635C58.1854 60.8588 58.1998 60.8541 58.2188 60.8469L67.0309 57.7834L74.7481 60.4685V61.9014V61.9014Z" fill="#E8C300"/>
</svg>
