<svg width="92" height="92" viewBox="0 0 92 92" fill="none" xmlns="http://www.w3.org/2000/svg">
<g clip-path="url(#clip0)">
<path d="M91.8226 50.2497C90.9966 41.9412 87.2847 34.1083 81.3704 28.1938C76.3161 23.1396 70.1297 19.8917 63.6202 18.4476V13.882C66.2789 13.2205 68.2552 10.814 68.2552 7.95346C68.2552 4.58463 65.5145 1.84399 62.1457 1.84399H49.208C45.8392 1.84399 43.0985 4.58463 43.0985 7.95346C43.0985 10.8138 45.0748 13.2204 47.7333 13.882V18.4603C41.2438 19.9106 35.0779 23.154 30.0379 28.194C28.935 29.2969 27.9179 30.4539 26.987 31.6564C26.9419 31.653 26.8968 31.6496 26.8508 31.6496H14.0459C13.0536 31.6496 12.2489 32.4541 12.2489 33.4465C12.2489 34.4389 13.0536 35.2434 14.0459 35.2434H24.5419C23.2244 37.4491 22.1621 39.7655 21.3535 42.15H1.7969C0.804653 42.15 0 42.9544 0 43.9469C0 44.9393 0.804653 45.7438 1.7969 45.7438H20.3381C19.8202 48.017 19.523 50.3305 19.4463 52.6505H11.5002C10.5079 52.6505 9.70328 53.455 9.70328 54.4474C9.70328 55.4399 10.5079 56.2443 11.5002 56.2443H19.5036C19.6552 58.5702 20.0292 60.8839 20.6256 63.1511H8.98452C7.99227 63.1511 7.18761 63.9556 7.18761 64.948C7.18761 65.9404 7.99227 66.7449 8.98452 66.7449H21.7724C23.5351 71.408 26.2899 75.7786 30.0379 79.5266C35.958 85.4467 43.799 89.1595 52.1161 89.9812C53.3031 90.0983 54.4911 90.1564 55.6774 90.1564C62.6893 90.1564 69.612 88.1271 75.4861 84.3019C76.3177 83.7603 76.5529 82.6471 76.0113 81.8155C75.4697 80.9839 74.3566 80.7487 73.525 81.2903C60.6669 89.6633 43.4466 87.8529 32.5791 76.9854C19.8279 64.2343 19.8279 43.4867 32.5791 30.7353C45.3301 17.9843 66.0777 17.9843 78.8291 30.7353C89.6822 41.5886 91.5024 58.7941 83.1571 71.6459C82.6166 72.4783 82.8532 73.5913 83.6854 74.1316C84.5181 74.6721 85.6307 74.4355 86.171 73.6031C90.6299 66.7363 92.637 58.4427 91.8226 50.2497ZM46.6923 7.95364C46.6923 6.56643 47.8208 5.43798 49.208 5.43798H62.1457C63.5329 5.43798 64.6614 6.56643 64.6614 7.95364C64.6614 9.34085 63.5329 10.4693 62.1457 10.4693H61.8233H49.5302H49.208C47.8208 10.4693 46.6923 9.34067 46.6923 7.95364ZM51.3271 17.8425V14.0631H60.0264V17.8361C57.1377 17.4925 54.2153 17.4947 51.3271 17.8425Z" fill="black"/>
<path d="M80.1005 76.4583C79.6261 76.4583 79.1643 76.6505 78.8303 76.9847C78.4942 77.319 78.3036 77.7825 78.3036 78.2551C78.3036 78.7277 78.4942 79.1913 78.8303 79.5255C79.1643 79.8615 79.6263 80.052 80.1005 80.052C80.573 80.052 81.0348 79.8615 81.3709 79.5255C81.7051 79.1913 81.8973 78.7277 81.8973 78.2551C81.8973 77.7825 81.7053 77.319 81.3709 76.9847C81.0348 76.6505 80.5729 76.4583 80.1005 76.4583Z" fill="black"/>
<path d="M55.7042 25.9849C40.3338 25.9849 27.829 38.4895 27.829 53.86C27.829 69.2306 40.3338 81.7352 55.7042 81.7352C71.0745 81.7352 83.5793 69.2306 83.5793 53.86C83.5793 38.4895 71.0745 25.9849 55.7042 25.9849ZM55.7042 78.1414C42.3153 78.1414 31.4228 67.2488 31.4228 53.86C31.4228 40.4713 42.3153 29.5787 55.7042 29.5787C69.0931 29.5787 79.9855 40.4713 79.9855 53.86C79.9855 67.2488 69.0931 78.1414 55.7042 78.1414Z" fill="black"/>
<path d="M67.0706 39.9525L58.1706 48.8524C57.4263 48.4844 56.5891 48.2765 55.7041 48.2765C54.819 48.2765 53.982 48.4844 53.2377 48.8524L49.2545 44.8692C48.5526 44.1675 47.4152 44.1675 46.7132 44.8692C46.0115 45.5709 46.0115 46.7087 46.7132 47.4104L50.6963 51.3936C50.3282 52.1379 50.1204 52.9751 50.1204 53.86C50.1204 56.9388 52.6251 59.4437 55.7041 59.4437C58.7831 59.4437 61.2878 56.9388 61.2878 53.86C61.2878 52.9751 61.0799 52.1379 60.7119 51.3936L69.3507 42.7548L69.6118 42.4937C70.3135 41.792 70.3135 40.6542 69.6118 39.9525C68.9101 39.2508 67.7727 39.2508 67.0706 39.9525ZM55.7041 55.8501C54.6069 55.8501 53.7142 54.9574 53.7142 53.8602C53.7142 52.763 54.6069 51.8703 55.7041 51.8703C56.8013 51.8703 57.694 52.763 57.694 53.8602C57.694 54.9574 56.8013 55.8501 55.7041 55.8501Z" fill="black"/>
<path d="M74.9164 52.085H73.2516C72.2594 52.085 71.4547 52.8894 71.4547 53.8818C71.4547 54.8742 72.2594 55.6787 73.2516 55.6787H74.9164C75.9086 55.6787 76.7133 54.8742 76.7133 53.8818C76.7133 52.8894 75.9086 52.085 74.9164 52.085Z" fill="black"/>
<path d="M38.1566 52.041H36.4919C35.4997 52.041 34.6951 52.8455 34.6951 53.8379C34.6951 54.8303 35.4997 55.6348 36.4919 55.6348H38.1566C39.1488 55.6348 39.9534 54.8303 39.9534 53.8379C39.9534 52.8455 39.1488 52.041 38.1566 52.041Z" fill="black"/>
<path d="M55.7261 38.1092C56.7183 38.1092 57.5229 37.3047 57.5229 36.3123V34.6477C57.5229 33.6553 56.7183 32.8508 55.7261 32.8508C54.7338 32.8508 53.9292 33.6553 53.9292 34.6477V36.3123C53.9292 37.3047 54.7338 38.1092 55.7261 38.1092Z" fill="black"/>
<path d="M55.6823 69.6108C54.69 69.6108 53.8854 70.4153 53.8854 71.4077V73.0723C53.8854 74.0647 54.69 74.8692 55.6823 74.8692C56.6745 74.8692 57.4791 74.0647 57.4791 73.0723V71.4077C57.4791 70.4153 56.6745 69.6108 55.6823 69.6108Z" fill="black"/>
<path d="M1.79688 63.1504C1.3243 63.1504 0.860703 63.3427 0.526484 63.6769C0.192266 64.0111 0 64.4747 0 64.9473C0 65.4216 0.192086 65.8834 0.526484 66.2177C0.860883 66.5519 1.3243 66.7441 1.79688 66.7441C2.26945 66.7441 2.73305 66.5519 3.06709 66.2177C3.4013 65.8834 3.59375 65.4198 3.59375 64.9473C3.59375 64.4747 3.40148 64.0111 3.06709 63.6769C2.73305 63.3427 2.26945 63.1504 1.79688 63.1504Z" fill="black"/>
</g>
<defs>
<clipPath id="clip0">
<rect width="92" height="92" fill="white"/>
</clipPath>
</defs>
</svg>
