<svg width="85" height="85" viewBox="0 0 85 85" fill="none" xmlns="http://www.w3.org/2000/svg">
<g clip-path="url(#clip0)">
<path d="M81.3338 57.7865C83.0758 55.5646 83.9112 53.1828 83.8046 50.7298C83.6979 48.028 82.4892 45.9128 81.4938 44.6152C82.6492 41.7357 83.0936 37.2031 79.2364 33.6836C76.4102 31.1062 71.6109 29.9509 64.9631 30.2708C60.2882 30.4841 56.3777 31.3551 56.2178 31.3906H56.2C55.3112 31.5506 54.3692 31.7461 53.4093 31.9594C53.3382 30.8218 53.5337 27.9956 55.6312 21.6322C58.1197 14.06 57.9775 8.26537 55.169 4.39042C52.2184 0.31995 47.508 0 46.1216 0C44.7884 0 43.562 0.551025 42.691 1.5642C40.718 3.85717 40.949 8.08762 41.1979 10.0429C38.8516 16.3352 32.2749 31.7639 26.7113 36.0477C26.6046 36.1188 26.5158 36.2077 26.4269 36.2965C24.7916 38.0207 23.6895 39.8871 22.943 41.5224C21.8943 40.9536 20.7033 40.6336 19.4235 40.6336H8.5808C4.49255 40.6336 1.1864 43.9575 1.1864 48.028V76.9124C1.1864 81.0006 4.51032 84.3068 8.5808 84.3068H19.4235C21.0055 84.3068 22.4808 83.8091 23.6895 82.9559L27.8667 83.4536C28.5066 83.5424 39.8826 84.9822 51.5607 84.7511C53.6759 84.9111 55.6667 85 57.5153 85C60.6971 85 63.47 84.7511 65.7807 84.2534C71.2199 83.0981 74.9348 80.7873 76.819 77.3923C78.2588 74.7972 78.2588 72.2198 78.0277 70.5845C81.5649 67.385 82.187 63.8478 82.0626 61.3593C81.9915 59.9195 81.6716 58.693 81.3338 57.7865ZM8.5808 79.5075C7.14102 79.5075 5.98565 78.3344 5.98565 76.9124V48.0102C5.98565 46.5705 7.1588 45.4151 8.5808 45.4151H19.4235C20.8633 45.4151 22.0187 46.5882 22.0187 48.0102V76.8946C22.0187 78.3344 20.8455 79.4898 19.4235 79.4898H8.5808V79.5075V79.5075ZM76.7834 55.7068C76.0369 56.4889 75.8947 57.6798 76.4635 58.6041C76.4635 58.6219 77.1923 59.8662 77.2811 61.5726C77.4056 63.9011 76.2857 65.963 73.9394 67.7227C73.104 68.3626 72.7663 69.4647 73.1218 70.4601C73.1218 70.4778 73.8861 72.8241 72.6419 75.046C71.4509 77.179 68.8025 78.7077 64.7853 79.5609C61.568 80.2541 57.1954 80.3785 51.8273 79.9519C51.7562 79.9519 51.6674 79.9519 51.5785 79.9519C40.1492 80.2007 28.5954 78.7077 28.471 78.6899H28.4532L26.658 78.4766C26.7646 77.9789 26.8179 77.4456 26.8179 76.9124V48.0102C26.8179 47.2459 26.6935 46.4994 26.4802 45.8061C26.8002 44.6152 27.6889 41.9667 29.7864 39.7093C37.7673 33.3814 45.5705 12.0337 45.9083 11.1094C46.0505 10.7361 46.086 10.3273 46.0149 9.91844C45.7127 7.92764 45.8194 5.49247 46.246 4.7637C47.1881 4.78147 49.7299 5.0481 51.2585 7.16332C53.0716 9.66959 53.0005 14.1489 51.0452 20.0857C48.059 29.1332 47.8102 33.8969 50.1743 35.9944C51.3474 37.0431 52.9116 37.0964 54.0492 36.6876C55.1335 36.4387 56.1644 36.2254 57.1421 36.0655C57.2132 36.0477 57.302 36.0299 57.3731 36.0121C62.8301 34.8212 72.6063 34.0924 76.0013 37.1853C78.8809 39.816 76.8368 43.2999 76.6057 43.6731C75.948 44.6685 76.1435 45.9661 77.0323 46.766C77.0501 46.7838 78.9164 48.5435 79.0053 50.9076C79.0764 52.4895 78.3299 54.1071 76.7834 55.7068Z" fill="black"/>
</g>
<defs>
<clipPath id="clip0">
<rect width="85" height="85" fill="white"/>
</clipPath>
</defs>
</svg>
