<svg width="61" height="61" viewBox="0 0 61 61" fill="none" xmlns="http://www.w3.org/2000/svg">
<g clip-path="url(#clip0)">
<path d="M44.6859 16.9097C44.4644 16.6881 44.157 16.5607 43.8437 16.5607C43.5303 16.5607 43.2229 16.6881 43.0013 16.9097C42.7797 17.1314 42.6523 17.4375 42.6523 17.7521C42.6523 18.0654 42.7796 18.3728 43.0013 18.5944C43.2231 18.816 43.5303 18.9435 43.8437 18.9435C44.157 18.9435 44.4644 18.816 44.6859 18.5944C44.9075 18.3728 45.0351 18.0654 45.0351 17.7521C45.0351 17.4387 44.9076 17.1314 44.6859 16.9097Z" fill="#E8C300"/>
<path d="M17.8711 33.5978H8.33983C7.68193 33.5978 7.14842 34.1312 7.14842 34.7892V44.3204C7.14842 44.9784 7.68193 45.5118 8.33983 45.5118H17.8711C18.529 45.5118 19.0625 44.9784 19.0625 44.3204V34.7892C19.0625 34.1312 18.5291 33.5978 17.8711 33.5978ZM16.6797 43.129H9.53123V35.9806H16.6797V43.129Z" fill="#E8C300"/>
<path d="M60.2644 24.9911C59.8192 24.8066 59.3067 24.9088 58.966 25.2493L46.8259 37.3895C46.8257 37.3897 46.8255 37.3899 46.8253 37.3901C46.825 37.3903 46.8249 37.3905 46.8248 37.3907L32.6728 51.5427C32.6726 51.5429 32.6725 51.543 32.6722 51.5433C32.672 51.5435 32.6719 51.5436 32.6716 51.5439L25.2493 58.9662C24.9087 59.3069 24.8067 59.8195 24.991 60.2646C25.1754 60.7098 25.6098 61 26.0917 61H59.8085C60.4664 61 60.9999 60.4666 60.9999 59.8086V26.0919C60.9999 25.6101 60.7097 25.1756 60.2644 24.9911ZM58.6171 58.6172H28.9682L33.5147 54.0707L34.652 55.208C34.8847 55.4407 35.1895 55.557 35.4944 55.557C35.7993 55.557 36.1042 55.4407 36.3369 55.208C36.8021 54.7428 36.8021 53.9884 36.3369 53.523L35.1996 52.3857L38.2324 49.3529L39.3696 50.4901C39.6023 50.7227 39.9071 50.839 40.212 50.839C40.5169 50.839 40.8218 50.7226 41.0545 50.4901C41.5197 50.0248 41.5197 49.2704 41.0545 48.8052L39.9172 47.6679L42.95 44.635L44.0873 45.7723C44.32 46.005 44.6249 46.1213 44.9297 46.1213C45.2346 46.1213 45.5395 46.005 45.7722 45.7723C46.2374 45.3071 46.2374 44.5527 45.7722 44.0873L44.6349 42.95L47.6676 39.9173L48.8049 41.0546C49.0376 41.2873 49.3425 41.4036 49.6473 41.4036C49.9522 41.4036 50.2571 41.2873 50.4898 41.0546C50.955 40.5894 50.955 39.835 50.4898 39.3696L49.3525 38.2323L52.3853 35.1995L53.5225 36.3367C53.7552 36.5693 54.0601 36.6856 54.3649 36.6856C54.6698 36.6856 54.9747 36.5692 55.2074 36.3367C55.6726 35.8714 55.6726 35.117 55.2074 34.6518L54.0701 33.5145L58.6171 28.9682V58.6172Z" fill="#E8C300"/>
<path d="M54.3074 39.3728C53.8622 39.1882 53.3496 39.2903 53.009 39.6309L39.6309 53.0092C39.2902 53.35 39.1881 53.8624 39.3726 54.3076C39.557 54.7528 39.9914 55.0431 40.4733 55.0431H53.8515C54.5093 55.0431 55.0429 54.5097 55.0429 53.8517V40.4735C55.0429 39.9917 54.7526 39.5572 54.3074 39.3728ZM52.6601 52.6603H43.3497L52.6601 43.3498V52.6603Z" fill="#E8C300"/>
<path d="M55.1693 17.7832C54.8413 17.4554 54.353 17.3474 53.9171 17.5069L45.7821 20.4861C45.6195 20.5456 45.4718 20.6399 45.3493 20.7623L43.0619 23.0497L28.1257 8.11344C27.9022 7.89005 27.5992 7.76447 27.2833 7.76447C26.9673 7.76447 26.6642 7.89005 26.4408 8.11344L8.4622 26.0921H4.06795L27.2833 2.87662L40.0228 15.6162C40.4882 16.0814 41.2424 16.0814 41.7078 15.6162C42.1731 15.1509 42.1731 14.3965 41.7078 13.9312L28.1258 0.349177C27.6605 -0.116067 26.9063 -0.116067 26.4408 0.349177L0.349097 26.4409C0.00847474 26.7817 -0.0935094 27.2941 0.0908008 27.7393C0.27523 28.1847 0.709616 28.4749 1.19154 28.4749H2.38294V59.8088C2.38294 60.4668 2.91645 61.0002 3.57435 61.0002H22.516C23.1739 61.0002 23.7074 60.4668 23.7074 59.8088C23.7074 59.1508 23.1739 58.6174 22.516 58.6174H4.76575V28.4749H8.95568C9.27164 28.4749 9.57461 28.3493 9.79812 28.1259L27.2833 10.6408L41.3769 24.7345L23.7091 42.4024V31.6917H32.0489C32.7068 31.6917 33.2403 31.1583 33.2403 30.5003C33.2403 29.8423 32.7068 29.3089 32.0489 29.3089H22.5177C21.8598 29.3089 21.3263 29.8423 21.3263 30.5003V44.3206C21.3263 44.4596 21.3513 44.5923 21.395 44.7163L20.3276 45.7837C18.4416 47.6697 18.4416 50.7385 20.3276 52.6245C21.2707 53.5676 22.5092 54.0392 23.748 54.0391C24.9866 54.0391 26.2256 53.5675 27.1684 52.6246L37.2158 42.5773C37.681 42.1121 37.681 41.3577 37.2158 40.8924C36.7505 40.4272 35.9964 40.4272 35.5308 40.8924L27.9187 48.5045L24.4477 45.0336L46.2155 23.2658L49.6864 26.7368L41.3687 35.0547C40.9034 35.5199 40.9034 36.2743 41.3687 36.7395C41.834 37.2048 42.5882 37.2048 43.0537 36.7395L52.1901 27.6031C52.3124 27.4807 52.4068 27.3329 52.4662 27.1704L55.4454 19.0354C55.605 18.5998 55.4973 18.1112 55.1693 17.7832ZM26.2339 50.1893L25.4835 50.9396C25.02 51.4032 24.4038 51.6585 23.7481 51.6585C23.0925 51.6585 22.4762 51.4032 22.0127 50.9396C21.5491 50.4761 21.2939 49.8598 21.2939 49.2042C21.2939 48.5487 21.5489 47.9323 22.0126 47.4687L22.763 46.7184L26.2339 50.1893ZM50.8833 24.5635L48.3888 22.0689L52.3249 20.6275L50.8833 24.5635Z" fill="#E8C300"/>
<path d="M40.1133 37.994C39.8918 37.7724 39.5844 37.6449 39.2711 37.6449C38.9577 37.6449 38.6503 37.7724 38.4287 37.994C38.2071 38.2168 38.0797 38.523 38.0797 38.8363C38.0797 39.1508 38.207 39.457 38.4287 39.6798C38.6503 39.9014 38.9565 40.0277 39.2711 40.0277C39.5844 40.0277 39.8918 39.9014 40.1133 39.6798C40.3349 39.457 40.4625 39.1496 40.4625 38.8363C40.4625 38.523 40.335 38.2168 40.1133 37.994Z" fill="#E8C300"/>
<path d="M27.2831 17.9904C24.7868 17.9904 22.7558 20.0213 22.7558 22.5177C22.7558 25.014 24.7868 27.045 27.2831 27.045C29.7795 27.045 31.8105 25.014 31.8105 22.5177C31.8105 20.0213 29.7795 17.9904 27.2831 17.9904ZM27.2831 24.6622C26.1007 24.6622 25.1386 23.7003 25.1386 22.5177C25.1386 21.3352 26.1007 20.3732 27.2831 20.3732C28.4656 20.3732 29.4277 21.3352 29.4277 22.5177C29.4277 23.7002 28.4656 24.6622 27.2831 24.6622Z" fill="#E8C300"/>
</g>
<defs>
<clipPath id="clip0">
<rect width="61" height="61" fill="white"/>
</clipPath>
</defs>
</svg>
