<svg width="87" height="87" viewBox="0 0 87 87" fill="none" xmlns="http://www.w3.org/2000/svg">
<g clip-path="url(#clip0)">
<path d="M81.2151 44.6269C80.865 43.9107 80.865 43.0893 81.2151 42.3732L84.4599 35.7353C86.2665 32.0393 84.8351 27.6341 81.2012 25.706L74.6745 22.2431C73.9703 21.8696 73.4876 21.2048 73.3498 20.42L72.0733 13.1424C71.3626 9.0905 67.6144 6.36769 63.542 6.94389L56.2264 7.97871C55.4367 8.09018 54.6559 7.83632 54.0831 7.2822L48.7729 2.14516C45.8161 -0.715293 41.1841 -0.715462 38.2275 2.14516L32.9171 7.28271C32.3441 7.837 31.5634 8.09035 30.7739 7.97922L23.4583 6.9444C19.3844 6.36786 15.6377 9.09101 14.9269 13.1429L13.6505 20.4201C13.5127 21.2052 13.0299 21.8697 12.3259 22.2434L5.79927 25.7064C2.16535 27.6343 0.733933 32.0398 2.54053 35.7358L5.78517 42.3736C6.13521 43.0898 6.13521 43.9112 5.78517 44.6272L2.54036 51.265C0.733763 54.961 2.16518 59.3662 5.7991 61.2943L12.3258 64.7573C13.0299 65.1307 13.5127 65.7955 13.6505 66.5803L14.9269 73.8579C15.574 77.5465 18.7369 80.1334 22.372 80.1331C22.73 80.1331 23.0933 80.1079 23.4585 80.0563L30.7741 79.0214C31.563 78.9095 32.3443 79.1638 32.9173 79.7179L38.2275 84.855C39.7061 86.2854 41.6028 87.0004 43.5001 87.0003C45.397 87.0001 47.2948 86.2851 48.7728 84.855L54.0831 79.7179C54.6561 79.1638 55.4371 78.9107 56.2264 79.0214L63.542 80.0563C67.6163 80.6326 71.3626 77.9097 72.0733 73.8577L73.35 66.5805C73.4878 65.7955 73.9705 65.1309 74.6745 64.7573L81.2012 61.2943C84.8351 59.3664 86.2665 54.9608 84.4599 51.2649L81.2151 44.6269ZM78.8493 56.8616L72.3226 60.3245C70.2418 61.4289 68.8146 63.3928 68.4076 65.7132L67.1312 72.9906C66.8908 74.3615 65.6233 75.2823 64.2447 75.0878L56.9291 74.053C54.5961 73.7225 52.2876 74.4733 50.5943 76.1112L45.284 81.2481C44.2838 82.2156 42.7166 82.2156 41.7161 81.2481L36.4059 76.111C34.9749 74.7267 33.104 73.9765 31.151 73.9765C30.7931 73.9765 30.4324 74.0016 30.0711 74.0528L22.7555 75.0876C21.3781 75.2823 20.1097 74.3614 19.8691 72.9904L18.5924 65.7129C18.1853 63.3925 16.7583 61.4283 14.6773 60.3244L8.15064 56.8614C6.92109 56.2091 6.43682 54.7187 7.04802 53.4682L10.2928 46.8303C11.3273 44.7137 11.3273 42.2862 10.2928 40.1697L7.04802 33.5318C6.43682 32.2813 6.92109 30.7909 8.15064 30.1386L14.6773 26.6756C16.7582 25.5713 18.1853 23.6074 18.5923 21.2869L19.8687 14.0095C20.1093 12.6386 21.3766 11.7177 22.7552 11.9124L30.0708 12.9472C32.4029 13.2774 34.7123 12.5268 36.4056 10.8889L41.716 5.7519C42.7161 4.78437 44.2833 4.78437 45.2838 5.7519L50.594 10.8889C52.2872 12.527 54.5963 13.2774 56.9288 12.9472L64.2444 11.9124C65.622 11.7175 66.8904 12.6386 67.1309 14.0095L68.4073 21.2871C68.8144 23.6075 70.2414 25.5716 72.3224 26.6756L78.8491 30.1386C80.0787 30.7909 80.5629 32.2813 79.9517 33.5318L76.7069 40.1695C75.6724 42.2859 75.6724 44.7137 76.7069 46.8301L79.9517 53.4679C80.5631 54.7187 80.0788 56.2092 78.8493 56.8616Z" fill="black"/>
<path d="M61.8318 25.1679C60.8522 24.1882 59.2634 24.1882 58.2837 25.1679L25.1679 58.2838C24.1882 59.2636 24.1882 60.8522 25.1679 61.8319C25.6578 62.3218 26.2999 62.5668 26.9419 62.5668C27.5839 62.5668 28.2262 62.322 28.7159 61.8319L61.8316 28.7162C62.8117 27.7363 62.8117 26.1479 61.8318 25.1679Z" fill="black"/>
<path d="M33.4644 20.9199C28.3919 20.9199 24.265 25.0468 24.265 30.1193C24.265 35.1917 28.3919 39.3186 33.4644 39.3186C38.5368 39.3186 42.6637 35.1917 42.6637 30.1193C42.6637 25.0468 38.5368 20.9199 33.4644 20.9199ZM33.4644 34.3007C31.1587 34.3007 29.2829 32.4249 29.2829 30.1191C29.2829 27.8134 31.1587 25.9377 33.4644 25.9377C35.77 25.9377 37.6459 27.8134 37.6459 30.1191C37.6458 32.4249 35.77 34.3007 33.4644 34.3007Z" fill="black"/>
<path d="M53.5354 47.6816C48.4629 47.6816 44.3361 51.8085 44.3361 56.881C44.3361 61.9535 48.4629 66.0803 53.5354 66.0803C58.6079 66.0803 62.7348 61.9535 62.7348 56.881C62.7348 51.8085 58.6079 47.6816 53.5354 47.6816ZM53.5354 61.0624C51.2298 61.0624 49.3538 59.1867 49.3538 56.881C49.3538 54.5753 51.2296 52.6996 53.5354 52.6996C55.8411 52.6996 57.7168 54.5753 57.7168 56.881C57.7168 59.1867 55.8411 61.0624 53.5354 61.0624Z" fill="black"/>
</g>
<defs>
<clipPath id="clip0">
<rect width="87" height="87" fill="white"/>
</clipPath>
</defs>
</svg>

