<svg width="128" height="128" viewBox="0 0 128 128" fill="none" xmlns="http://www.w3.org/2000/svg">
<path d="M64 40C70.624 40 76.6 42.684 80.96 47.04C85.316 51.4 88 57.376 88 64C88 66.208 89.792 68 92 68C94.208 68 96 66.208 96 64C96 55.184 92.404 47.164 86.616 41.384C80.84 35.596 72.816 32 64 32C61.792 32 60 33.792 60 36C60 38.208 61.792 40 64 40Z" fill="white"/>
<path d="M64 88C57.376 88 51.4 85.316 47.04 80.96C42.684 76.6 40.004 70.624 40 64C40 61.792 38.208 60 36 60C33.792 60 32 61.792 32 64C32 72.816 35.596 80.836 41.384 86.616C47.164 92.404 55.184 96 64 96C66.208 96 68 94.208 68 92C68 89.792 66.208 88 64 88Z" fill="white"/>
<path d="M64 76V72C60 71.992 56.008 68.4 56 64C56.008 59.6 59.6 56.008 64 56C68.4 56.008 71.992 59.6 72 64C71.992 68.4 68 71.992 64 72V76V80C72 79.992 79.992 72.832 80 64C79.992 55.168 72.836 48.008 64 48C55.168 48.008 48.008 55.168 48 64C48.008 72.832 56 79.992 64 80V76Z" fill="white"/>
<path d="M109.76 49.96C109.072 47.704 108.22 45.524 107.216 43.412L117.744 32.884C118.488 32.14 118.916 31.108 118.916 30.056C118.916 29.004 118.488 27.972 117.744 27.228C112.316 21.796 105.184 19.088 98.088 19.096C94.088 19.096 90.1 20.004 86.384 21.7C84.34 20.612 84 19.684 80 18.896V4C80 2.948 79.572 1.916 78.828 1.172C78.084 0.428 77.052 0 76 0C63.984 0.004 53.924 7.648 49.96 18.24C47.704 18.928 45.524 19.78 43.412 20.784L32.888 10.26C31.324 8.696 28.792 8.696 27.232 10.26C21.8 15.684 19.092 22.82 19.096 29.912C19.096 33.912 20 37.9 21.7 41.616C20.616 43.66 19.684 44 18.896 48H4C2.948 48 1.916 48.428 1.172 49.172C0.428 49.916 0 50.948 0 52C0.004 64.016 7.648 74.076 18.24 78.036C18.928 80.292 19.78 82.472 20.784 84.584L10.256 95.112C9.512 95.856 9.084 96.888 9.084 97.94C9.084 98.992 9.512 100.024 10.256 100.768C15.684 106.2 22.816 108.908 29.908 108.9C33.908 108.9 37.896 107.992 41.612 106.296C43.66 107.384 44 108.316 48 109.104V124C48 125.052 48.428 126.084 49.172 126.828C49.916 127.572 50.948 128 52 128C64.016 127.996 74.076 120.352 78.036 109.76C80.292 109.072 82.472 108.22 84.584 107.216L95.112 117.744C95.856 118.488 96.888 118.916 97.94 118.916C98.992 118.916 100.024 118.488 100.768 117.744C106.2 112.316 108.908 105.184 108.9 98.092C108.9 94.088 107.992 90.104 106.296 86.388C107.388 84.34 108.316 84 109.104 80H124C125.052 80 126.084 79.572 126.828 78.828C127.572 78.084 128 77.052 128 76C127.996 63.984 120.352 53.924 109.76 49.96ZM106.292 72C104.504 72 102.932 73.184 102.444 74.904C101.5 78.224 100.136 81.36 98.408 84.28C97.688 85.5 97.668 87.024 98.356 88.264C100.052 91.308 100.904 94.7 100.904 98.084C100.9 101.9 99.828 105.676 97.656 108.968L88.252 99.564C86.988 98.3 85.028 98.028 83.468 98.904C80.536 100.548 77.348 101.812 73.98 102.684C72.608 103.036 71.52 104.096 71.132 105.46C69.092 112.584 64 118.052 56 119.552V106.292C56 104.504 54.812 102.932 53.092 102.444C49.776 101.5 46.636 100.136 43.716 98.408C42.496 97.688 40.972 97.664 39.732 98.356C36.684 100.052 33.292 100.904 29.908 100.904C26.092 100.9 22.316 99.828 19.024 97.656L28.428 88.252C29.692 86.988 29.964 85.028 29.088 83.468C27.444 80.536 26.18 77.352 25.308 73.98C24.952 72.608 23.896 71.524 22.532 71.136C15.416 69.092 9.948 64 8.448 56H21.708C23.496 56 25.068 54.812 25.556 53.092C26.5 49.772 27.864 46.636 29.592 43.716C30.312 42.496 30.332 40.972 29.644 39.732C27.948 36.684 27.096 33.292 27.096 29.908C27.1 26.096 28.172 22.32 30.344 19.028L39.748 28.432C41.012 29.696 42.972 29.968 44.532 29.092C47.464 27.448 50.652 26.184 54.02 25.312C55.392 24.96 56.48 23.9 56.868 22.536C58.908 15.416 64 9.948 72 8.448V21.708C72 23.496 73.188 25.068 74.908 25.556C78.224 26.5 81.364 27.864 84.284 29.592C85.504 30.312 87.032 30.332 88.268 29.644C91.312 27.948 94.704 27.096 98.088 27.096C101.904 27.1 105.68 28.172 108.972 30.344L99.568 39.748C98.304 41.012 98.032 42.972 98.908 44.532C100.552 47.464 101.816 50.652 102.688 54.02C103.044 55.392 104.1 56.476 105.464 56.868C112.584 58.908 118.052 64 119.552 72H106.292Z" fill="#E8C300"/>
</svg>
